<svg width="49" height="50" viewBox="0 0 49 50" fill="none" xmlns="http://www.w3.org/2000/svg">
<g id="Group 81740">
<path id="Vector" d="M16.566 22.5875C16.8845 22.5879 17.1903 22.4612 17.4155 22.236C17.6407 22.0107 17.7674 21.705 17.767 21.3865C17.767 20.7231 18.305 20.1851 18.9684 20.1851C19.6318 20.1851 20.1698 20.7231 20.1698 21.3865C20.1698 22.0499 20.7074 22.5875 21.3708 22.5875C22.0346 22.5875 22.5722 22.0499 22.5722 21.3865C22.5722 19.3959 20.9586 17.7827 18.9684 17.7827C16.9782 17.7827 15.3646 19.3959 15.3646 21.3865C15.3646 21.705 15.4909 22.0107 15.7161 22.236C15.9418 22.4612 16.2471 22.5879 16.566 22.5875Z" fill="white"/>
<path id="Vector_2" d="M32.8463 30.5227C28.3601 32.7654 21.5903 32.7654 17.1031 30.5227C16.5097 30.2258 15.7882 30.4664 15.4913 31.0599C15.1948 31.6533 15.435 32.3752 16.0284 32.6717C18.8245 33.9906 21.8837 34.6548 24.9745 34.6144C28.0654 34.6548 31.125 33.9901 33.9206 32.6717C34.5141 32.3752 34.7547 31.6533 34.4582 31.0599C34.1613 30.4664 33.4398 30.2258 32.8463 30.5227Z" fill="white"/>
<path id="Vector_3" d="M45.3962 20.1852H44.1948V16.5814C44.1917 13.2658 41.5043 10.5784 38.1887 10.5753H34.5849V7.95119C36.2394 7.36654 37.2323 5.67419 36.9353 3.94445C36.6384 2.21427 35.1387 0.949951 33.3835 0.949951C31.6282 0.949951 30.1285 2.21427 29.8316 3.94445C29.5347 5.67419 30.5276 7.36654 32.1821 7.95119V10.5753H17.767V7.95119C19.4219 7.36654 20.4144 5.67419 20.1179 3.94445C19.8209 2.21427 18.3212 0.949951 16.566 0.949951C14.8107 0.949951 13.3106 2.21427 13.0141 3.94445C12.7172 5.67419 13.7096 7.36654 15.3646 7.95119V10.5753H11.7608C8.44517 10.5788 5.75817 13.2658 5.75465 16.5814V20.1852H4.55324C2.56395 20.1874 0.951662 21.7997 0.949463 23.789V28.5942C0.951662 30.5835 2.56395 32.1958 4.55324 32.198H5.75465V37.0027C5.75817 40.3188 8.44517 43.0058 11.7608 43.0093H17.767V47.814C17.7674 48.2509 18.0045 48.653 18.3864 48.8646C18.7682 49.0762 19.2349 49.0638 19.6049 48.8324L28.9232 43.0093H38.1887C41.5043 43.0062 44.1917 40.3188 44.1948 37.0027V32.198H45.3962C47.3855 32.1958 48.9978 30.5835 49 28.5942V23.789C48.9978 21.7997 47.3855 20.1874 45.3962 20.1852ZM33.3835 3.36772C34.0469 3.36772 34.5849 3.9053 34.5849 4.56869C34.5849 5.23252 34.0469 5.77009 33.3835 5.77009C32.7201 5.77009 32.1821 5.23252 32.1821 4.56869C32.1834 3.90618 32.7205 3.36904 33.3835 3.36772ZM16.566 3.36772C17.2294 3.36772 17.767 3.9053 17.767 4.56869C17.767 5.23252 17.2294 5.77009 16.566 5.77009C15.9026 5.77009 15.3646 5.23252 15.3646 4.56869C15.3655 3.90574 15.9026 3.3686 16.566 3.36772ZM4.55324 29.7951C3.89029 29.7947 3.35272 29.2571 3.35184 28.5942V23.789C3.35272 23.126 3.89029 22.5885 4.55324 22.5876H5.75465V29.7951H4.55324ZM41.7924 37.0027C41.7902 38.9924 40.178 40.6047 38.1887 40.6065H28.5783C28.3535 40.6065 28.1331 40.6698 27.9426 40.7895L20.1698 45.6461V41.8079C20.1698 41.4894 20.0435 41.1836 19.8178 40.9584C19.5926 40.7332 19.2869 40.6065 18.9684 40.6065H11.7608C9.77151 40.6047 8.15922 38.9924 8.15702 37.0027V16.5814C8.15922 14.5921 9.77151 12.9799 11.7608 12.9777H38.1887C40.178 12.9799 41.7902 14.5921 41.7924 16.5814V37.0027ZM46.5972 28.5942C46.5963 29.2571 46.0592 29.7943 45.3962 29.7951H44.1948V22.5876H45.3962C46.0592 22.5889 46.5963 23.126 46.5972 23.789V28.5942Z" fill="white"/>
<path id="Vector_4" d="M30.9811 17.7827C28.9918 17.7849 27.3795 19.3972 27.3773 21.3865C27.3773 22.0499 27.9149 22.5875 28.5783 22.5875C29.2421 22.5875 29.7797 22.0499 29.7797 21.3865C29.7797 20.7231 30.3177 20.1851 30.9811 20.1851C31.6445 20.1851 32.1821 20.7231 32.1821 21.3865C32.1821 22.0499 32.7201 22.5875 33.3835 22.5875C34.0469 22.5875 34.5849 22.0499 34.5849 21.3865C34.5827 19.3972 32.9704 17.7849 30.9811 17.7827Z" fill="white"/>
</g>
</svg>
