<svg width="35" height="37" viewBox="0 0 35 37" fill="none" xmlns="http://www.w3.org/2000/svg">
<g id="Group 81734">
<path id="Vector" d="M34.538 28.21C34.0402 32.2224 30.7519 35.5107 26.7395 36.0085C24.311 36.3102 22.0484 35.6465 20.2835 34.3492C19.2729 33.6101 19.5142 32.0414 20.721 31.6793C25.2613 30.3067 28.8362 26.7167 30.224 22.1763C30.586 20.9847 32.1547 20.7433 32.8938 21.7389C34.176 23.5188 34.8397 25.7814 34.538 28.21Z" fill="url(#paint0_linear_640_146)"/>
<path id="Vector_2" d="M15.1261 0C6.80059 0 0.0419922 6.7586 0.0419922 15.0841C0.0419922 23.4097 6.80059 30.1683 15.1261 30.1683C23.4517 30.1683 30.2103 23.4097 30.2103 15.0841C30.1914 6.7586 23.4517 0 15.1261 0ZM13.3515 12.9697L17.9013 14.5555C19.5438 15.1408 20.3367 16.2924 20.3367 18.067C20.3367 20.1059 18.7131 21.7861 16.7308 21.7861H16.5609V21.8805C16.5609 22.6545 15.919 23.2964 15.145 23.2964C14.371 23.2964 13.7291 22.6545 13.7291 21.8805V21.7672C11.6336 21.6728 9.95334 19.9171 9.95334 17.7272C9.95334 16.9531 10.5952 16.3113 11.3692 16.3113C12.1433 16.3113 12.7852 16.9531 12.7852 17.7272C12.7852 18.4068 13.276 18.9543 13.8801 18.9543H16.7119C17.1462 18.9543 17.486 18.5578 17.486 18.067C17.486 17.4062 17.3727 17.3685 16.9385 17.2174L12.3887 15.6316C10.7651 15.0653 9.95334 13.9136 9.95334 12.1202C9.95334 10.0813 11.5769 8.40105 13.5592 8.40105H13.7291V8.32553C13.7291 7.5515 14.371 6.90963 15.145 6.90963C15.919 6.90963 16.5609 7.5515 16.5609 8.32553V8.43881C18.6565 8.5332 20.3367 10.2889 20.3367 12.4789C20.3367 13.2529 19.6948 13.8948 18.9208 13.8948C18.1467 13.8948 17.5048 13.2529 17.5048 12.4789C17.5048 11.7992 17.014 11.2517 16.4099 11.2517H13.5781C13.1439 11.2517 12.804 11.6482 12.804 12.139C12.7852 12.7809 12.8984 12.8187 13.3515 12.9697Z" fill="url(#paint1_linear_640_146)"/>
</g>
<defs>
<linearGradient id="paint0_linear_640_146" x1="23.9053" y1="23.9233" x2="34.078" y2="27.217" gradientUnits="userSpaceOnUse">
<stop stop-color="#B33AE7"/>
<stop offset="1" stop-color="#D80FFF"/>
</linearGradient>
<linearGradient id="paint1_linear_640_146" x1="8.62109" y1="5.65655" x2="29.136" y2="12.3007" gradientUnits="userSpaceOnUse">
<stop stop-color="#B33AE7"/>
<stop offset="1" stop-color="#D80FFF"/>
</linearGradient>
</defs>
</svg>
