<svg width="27" height="31" viewBox="0 0 27 31" fill="none" xmlns="http://www.w3.org/2000/svg">
<g id="Group 5">
<g id="Layer_2_00000042000822396739241590000016871613492026833300_">
<g id="Social_Icon">
<g id="PollVertical">
<path id="Vector" d="M3.58451 10.1979C5.56196 10.1979 7.16902 11.8049 7.16902 13.7824V27.0033C7.16902 28.9807 5.56196 30.5878 3.58451 30.5878C1.60706 30.5878 0 28.9807 0 27.0033V13.7824C0 11.799 1.60108 10.1979 3.58451 10.1979Z" fill="url(#paint0_linear_640_171)"/>
<path id="Vector_2" d="M13.3344 0C15.3118 0 16.9189 1.60706 16.9189 3.58451V27.0033C16.9189 28.9808 15.3118 30.5878 13.3344 30.5878C11.3569 30.5878 9.74988 28.9808 9.74988 27.0033V3.58451C9.74988 1.60706 11.3569 0 13.3344 0Z" fill="url(#paint1_linear_640_171)"/>
<path id="Vector_3" d="M23.0843 20.3899C25.0617 20.3899 26.6688 21.9969 26.6688 23.9744V27.0033C26.6688 28.9808 25.0617 30.5878 23.0843 30.5878C21.1068 30.5878 19.4998 28.9808 19.4998 27.0033V23.9744C19.4998 21.9969 21.1068 20.3899 23.0843 20.3899Z" fill="url(#paint2_linear_640_171)"/>
</g>
</g>
</g>
</g>
<defs>
<linearGradient id="paint0_linear_640_171" x1="2.03869" y1="14.021" x2="7.35614" y2="14.6265" gradientUnits="userSpaceOnUse">
<stop stop-color="#B33AE7"/>
<stop offset="1" stop-color="#D80FFF"/>
</linearGradient>
<linearGradient id="paint1_linear_640_171" x1="11.7886" y1="5.73522" x2="17.1441" y2="6.14174" gradientUnits="userSpaceOnUse">
<stop stop-color="#B33AE7"/>
<stop offset="1" stop-color="#D80FFF"/>
</linearGradient>
<linearGradient id="paint2_linear_640_171" x1="21.5384" y1="22.302" x2="26.6594" y2="23.4679" gradientUnits="userSpaceOnUse">
<stop stop-color="#B33AE7"/>
<stop offset="1" stop-color="#D80FFF"/>
</linearGradient>
</defs>
</svg>
