<svg width="37" height="34" viewBox="0 0 37 34" fill="none" xmlns="http://www.w3.org/2000/svg">
<g id="Group 4">
<g id="Group">
<path id="Vector" fill-rule="evenodd" clip-rule="evenodd" d="M14.0718 8.49524C15.0663 8.49524 15.8726 9.30148 15.8726 10.296V20.7546C15.8726 23.1334 17.0403 25.2395 18.8338 26.5309C19.3848 26.9276 19.7789 27.5335 19.7789 28.2126V28.7673C19.7789 31.4028 17.6424 33.5393 15.0069 33.5393H5.76149C3.126 33.5393 0.989502 31.4028 0.989502 28.7673V13.2672C0.989502 10.6317 3.126 8.49524 5.76149 8.49524H14.0718ZM10.3843 28.8652C10.0586 28.8652 9.76403 28.7322 9.55182 28.5176L6.2179 25.1837C5.76082 24.7266 5.76082 23.9855 6.2179 23.5284C6.67502 23.0713 7.41612 23.0713 7.87324 23.5284L9.21377 24.8689V14.34C9.21377 13.6935 9.73779 13.1695 10.3843 13.1695C11.0307 13.1695 11.5548 13.6935 11.5548 14.34V24.8689L12.8953 23.5284C13.3524 23.0713 14.0935 23.0713 14.5506 23.5284C15.0077 23.9855 15.0077 24.7266 14.5506 25.1837L11.2119 28.5224C11.1912 28.5431 11.1697 28.563 11.1476 28.582C10.9427 28.7585 10.6759 28.8652 10.3843 28.8652Z" fill="url(#paint0_linear_640_188)"/>
<path id="Vector_2" fill-rule="evenodd" clip-rule="evenodd" d="M22.9857 25.5266C20.3501 25.5266 18.2136 23.3901 18.2136 20.7546V5.25455C18.2136 2.61905 20.3501 0.482544 22.9856 0.482544H32.228C34.8635 0.482544 37.0001 2.61905 37.0001 5.25455V20.7546C37.0001 23.3901 34.8635 25.5266 32.228 25.5266H22.9857ZM27.6068 19.7599C26.9603 19.7599 26.4363 19.2358 26.4363 18.5894V10.2457L25.6421 11.0399C25.1849 11.497 24.4438 11.497 23.9867 11.0399C23.5296 10.5828 23.5296 9.8417 23.9867 9.38462L26.7605 6.61079C26.9736 6.38781 27.274 6.24892 27.6068 6.24892C27.938 6.24892 28.2371 6.3865 28.45 6.60763L31.227 9.38462C31.6841 9.8417 31.6841 10.5828 31.227 11.0399C30.7699 11.497 30.0288 11.497 29.5717 11.0399L28.7773 10.2456V18.5894C28.7773 19.2358 28.2532 19.7599 27.6068 19.7599Z" fill="url(#paint1_linear_640_188)"/>
</g>
</g>
<defs>
<linearGradient id="paint0_linear_640_188" x1="6.33273" y1="13.191" x2="19.663" y2="16.43" gradientUnits="userSpaceOnUse">
<stop stop-color="#B33AE7"/>
<stop offset="1" stop-color="#D80FFF"/>
</linearGradient>
<linearGradient id="paint1_linear_640_188" x1="23.556" y1="5.17831" x2="36.8844" y2="8.41637" gradientUnits="userSpaceOnUse">
<stop stop-color="#B33AE7"/>
<stop offset="1" stop-color="#D80FFF"/>
</linearGradient>
</defs>
</svg>
