<svg width="30" height="18" viewBox="0 0 30 18" fill="none" xmlns="http://www.w3.org/2000/svg">
<g id="Group 81742">
<g id="Group">
<path id="Vector" d="M16.9216 9.08676C16.9216 13.7916 13.1336 17.6056 8.46082 17.6056C3.78803 17.6056 0 13.7916 0 9.08676C0 4.38191 3.78803 0.567871 8.46082 0.567871C13.1336 0.567871 16.9216 4.38191 16.9216 9.08676Z" fill="url(#paint0_linear_640_289)"/>
<path id="Vector_2" d="M26.2034 9.08665C26.2034 13.5155 24.3093 17.1057 21.973 17.1057C19.6366 17.1057 17.7426 13.5155 17.7426 9.08665C17.7426 4.65784 19.6366 1.06763 21.973 1.06763C24.3094 1.06763 26.2034 4.65784 26.2034 9.08665Z" fill="url(#paint1_linear_640_289)"/>
<path id="Vector_3" d="M30 9.08681C30 13.0548 29.3338 16.2715 28.5121 16.2715C27.6903 16.2715 27.0243 13.0548 27.0243 9.08681C27.0243 5.11878 27.6903 1.9021 28.5121 1.9021C29.3338 1.9021 30 5.11878 30 9.08681Z" fill="url(#paint2_linear_640_289)"/>
</g>
</g>
<defs>
<linearGradient id="paint0_linear_640_289" x1="4.81209" y1="3.76245" x2="16.3339" y2="7.46858" gradientUnits="userSpaceOnUse">
<stop stop-color="#B33AE7"/>
<stop offset="1" stop-color="#D80FFF"/>
</linearGradient>
<linearGradient id="paint1_linear_640_289" x1="20.1486" y1="4.07476" x2="26.3253" y2="5.13008" gradientUnits="userSpaceOnUse">
<stop stop-color="#B33AE7"/>
<stop offset="1" stop-color="#D80FFF"/>
</linearGradient>
<linearGradient id="paint2_linear_640_289" x1="27.8705" y1="4.59636" x2="30.0963" y2="4.74564" gradientUnits="userSpaceOnUse">
<stop stop-color="#B33AE7"/>
<stop offset="1" stop-color="#D80FFF"/>
</linearGradient>
</defs>
</svg>
