<svg width="46" height="51" viewBox="0 0 46 51" fill="none" xmlns="http://www.w3.org/2000/svg">
<g id="Group 81739">
<g id="Group">
<path id="Vector" d="M43.6754 31.6105C44.8365 27.6408 44.8352 23.3816 43.6716 19.3927C45.6014 17.7969 46.1596 14.9894 44.8666 12.75C43.5747 10.5121 40.8671 9.59149 38.5211 10.462C35.6639 7.4715 31.9746 5.34295 27.9382 4.35622C27.5211 1.8871 25.3688 0 22.7829 0C20.1987 0 18.0476 1.88461 17.6286 4.35134C13.6104 5.3305 9.92266 7.46104 7.04993 10.463C6.03889 10.0848 4.93831 10.0284 3.87468 10.3134C2.52537 10.6749 1.3977 11.5402 0.699334 12.75C-0.592799 14.988 -0.0361816 17.7932 1.89056 19.3895C0.729416 23.3591 0.730711 27.6183 1.89435 31.6073C-0.0354847 33.2031 -0.593695 36.0105 0.699235 38.25C1.3977 39.4598 2.52537 40.3251 3.87458 40.6865C4.32512 40.8073 4.78232 40.867 5.23654 40.867C5.85282 40.867 6.46303 40.7544 7.04425 40.5377C9.90155 43.5284 13.5911 45.6571 17.6276 46.6439C18.0448 49.1129 20.197 51 22.7829 51C25.3671 51 27.5183 49.1154 27.9372 46.6486C31.9552 45.6695 35.6428 43.5392 38.5153 40.5374C39.1062 40.7575 39.7201 40.8638 40.3288 40.8637C42.1374 40.8636 43.899 39.9256 44.8665 38.2499C46.1587 36.0121 45.6021 33.2069 43.6754 31.6105ZM42.2787 14.2441C42.8966 15.3143 42.5286 16.6878 41.4584 17.3057C40.3884 17.9236 39.0148 17.5558 38.3968 16.4855C37.779 15.4151 38.147 14.0417 39.2172 13.4239C39.5692 13.2206 39.9539 13.124 40.334 13.124C41.1091 13.1239 41.864 13.5261 42.2787 14.2441ZM22.7829 2.98828C24.0187 2.98828 25.0241 3.99364 25.0241 5.22949C25.0241 6.46535 24.0187 7.4707 22.7829 7.4707C21.5471 7.4707 20.5417 6.46535 20.5417 5.22949C20.5417 3.99364 21.5471 2.98828 22.7829 2.98828ZM3.28729 14.2441C3.58651 13.7257 4.06982 13.3548 4.64815 13.1999C4.84119 13.1481 5.03712 13.1226 5.23186 13.1226C5.62014 13.1226 6.00353 13.2244 6.34878 13.4239C7.41908 14.0418 7.78704 15.4152 7.16916 16.4855C6.55118 17.5557 5.17777 17.9235 4.10757 17.3058C3.03737 16.6878 2.66931 15.3144 3.28729 14.2441ZM4.64815 37.8001C4.06992 37.6451 3.58661 37.2743 3.28729 36.7559C2.66941 35.6856 3.03737 34.3122 4.10757 33.6943C5.17797 33.0763 6.55128 33.4444 7.16916 34.5145C7.78704 35.5848 7.41908 36.9582 6.34878 37.576C5.83041 37.8756 5.22638 37.9551 4.64815 37.8001ZM22.7829 48.0117C21.5471 48.0117 20.5417 47.0064 20.5417 45.7705C20.5417 44.5347 21.5471 43.5293 22.7829 43.5293C24.0187 43.5293 25.0241 44.5347 25.0241 45.7705C25.0241 47.0064 24.0187 48.0117 22.7829 48.0117ZM27.5661 43.6602C26.7533 41.8251 24.9158 40.541 22.7829 40.541C20.6518 40.541 18.8155 41.8231 18.0017 43.6559C14.7621 42.8007 11.7972 41.091 9.44922 38.7244C9.82614 38.2091 10.1092 37.624 10.2795 36.9887C10.6409 35.6395 10.4555 34.2303 9.75701 33.0205C8.69139 31.1749 6.66305 30.2259 4.66887 30.4374C3.78952 27.2035 3.78782 23.7802 4.66389 20.5631C4.84896 20.5829 5.03443 20.5932 5.21931 20.5932C7.02792 20.5932 8.78951 19.6552 9.75701 17.9795C10.4555 16.7697 10.641 15.3606 10.2795 14.0113C10.1096 13.3776 9.82754 12.7938 9.45201 12.2794C11.8129 9.90187 14.7761 8.18938 17.9997 7.33982C18.8126 9.17492 20.6501 10.459 22.7829 10.459C24.9141 10.459 26.7503 9.17691 27.5642 7.3441C30.8048 8.19964 33.7704 9.91004 36.1186 12.2776C34.9359 13.899 34.7425 16.1323 35.8088 17.9795C36.7764 19.6553 38.5377 20.5931 40.3466 20.5931C40.5299 20.5931 40.7137 20.5829 40.8973 20.5635C41.7765 23.7974 41.778 27.2207 40.9018 30.4378C38.9061 30.2243 36.8753 31.1734 35.8088 33.0205C34.7433 34.8662 34.9356 37.0974 36.1158 38.7186C33.7547 41.0972 30.7906 42.8104 27.5661 43.6602ZM42.2787 36.7559C41.6608 37.8262 40.2875 38.194 39.2172 37.5762C38.147 36.9584 37.779 35.5849 38.3968 34.5146C38.8115 33.7965 39.5663 33.3944 40.3416 33.3944C40.7215 33.3944 41.1064 33.4911 41.4584 33.6943C42.5286 34.3122 42.8966 35.6857 42.2787 36.7559Z" fill="white"/>
<path id="Vector (Stroke)" fill-rule="evenodd" clip-rule="evenodd" d="M43.1032 31.7858L43.1955 31.4702C44.3297 27.5924 44.3287 23.4305 43.1916 19.5327L43.0995 19.2169L43.353 19.0073C45.0983 17.5641 45.6022 15.0241 44.4336 13L44.8472 12.7612L44.4336 13C43.2659 10.9773 40.8168 10.1434 38.695 10.9307L38.3868 11.0451L38.1596 10.8074C35.3686 7.88621 31.7637 5.80611 27.8195 4.84191L27.5 4.76381L27.4452 4.43951C27.0679 2.2064 25.1202 0.5 22.7829 0.5C20.4471 0.5 18.5005 2.20414 18.1216 4.43506L18.0665 4.75927L17.747 4.83712C13.8219 5.79359 10.2183 7.8753 7.41117 10.8087L7.18336 11.0467L6.87474 10.9313C5.96121 10.5895 4.96712 10.5383 4.0041 10.7963C2.78287 11.1236 1.76441 11.9051 1.13236 13L1.13235 13C-0.0355548 15.0229 0.466981 17.5608 2.20955 19.0044L2.46277 19.2142L2.37045 19.5298C1.23622 23.4075 1.23728 27.5694 2.37434 31.4673L2.46645 31.7831L2.21297 31.9927C0.467606 33.4359 -0.0363725 35.9758 1.13225 38C1.76441 39.0949 2.78288 39.8764 4.004 40.2036C4.41259 40.3131 4.82629 40.367 5.23654 40.367C5.79159 40.367 6.34273 40.2656 6.86961 40.0692L7.17824 39.9542L7.40577 40.1923C10.1969 43.1137 13.802 45.1939 17.7464 46.1582L18.0659 46.2363L18.1207 46.5606C18.4979 48.7936 20.4456 50.5 22.7829 50.5C25.1186 50.5 27.0654 48.7959 27.4443 46.5648L27.4993 46.2406L27.8188 46.1628C31.7437 45.2064 35.3472 43.1249 38.1541 40.1917L38.3815 39.9541L38.6898 40.0689C39.2237 40.2677 39.7784 40.3637 40.3288 40.3637C41.9667 40.3636 43.5592 39.5142 44.4335 37.9999L44.8665 38.2499C43.899 39.9256 42.1374 40.8636 40.3288 40.8637C39.7201 40.8638 39.1062 40.7575 38.5153 40.5374C35.6428 43.5392 31.9552 45.6695 27.9372 46.6486C27.5183 49.1154 25.3671 51 22.7829 51C20.197 51 18.0448 49.1129 17.6276 46.6439C13.5911 45.6571 9.90155 43.5284 7.04425 40.5377C6.46303 40.7544 5.85282 40.867 5.23654 40.867C4.78232 40.867 4.32512 40.8073 3.87458 40.6865C2.52537 40.3251 1.3977 39.4598 0.699234 38.25C-0.593695 36.0105 -0.0354846 33.2031 1.89435 31.6073C0.730711 27.6183 0.729416 23.3591 1.89056 19.3895C-0.0361817 17.7932 -0.592799 14.988 0.699334 12.75C1.3977 11.5402 2.52537 10.6749 3.87468 10.3134C4.93831 10.0284 6.03889 10.0848 7.04993 10.463C9.92266 7.46104 13.6104 5.3305 17.6286 4.35134C18.0476 1.88461 20.1987 0 22.7829 0C25.3688 0 27.5211 1.8871 27.9382 4.35622C31.9746 5.34295 35.6639 7.4715 38.5211 10.462C40.8671 9.59149 43.5747 10.5121 44.8666 12.75C46.1596 14.9894 45.6014 17.7969 43.6716 19.3927C44.8353 23.3816 44.8365 27.6408 43.6754 31.6105C45.6021 33.2069 46.1587 36.0121 44.8665 38.2499L44.4335 37.9999C45.6014 35.9772 45.099 33.4393 43.3564 31.9956L43.1032 31.7858ZM42.7117 13.9941L42.7117 13.9941C43.4676 15.3035 43.0177 16.9827 41.7084 17.7387C40.3993 18.4947 38.7199 18.0449 37.9638 16.7355L37.9638 16.7354C37.208 15.426 37.6578 13.7469 38.9671 12.9909M7.60218 16.7355L7.60216 16.7355C6.84608 18.0448 5.16691 18.4945 3.85763 17.7389L3.85751 17.7388C2.54826 16.9827 2.0982 15.3036 2.85428 13.9941C3.21979 13.3609 3.81225 12.9062 4.51857 12.717C4.75386 12.6539 4.99335 12.6226 5.23186 12.6226C5.7083 12.6226 6.17791 12.7477 6.59886 12.9909C7.90824 13.747 8.35811 15.4261 7.60218 16.7355ZM4.64815 13.1999C4.06982 13.3548 3.58651 13.7257 3.28729 14.2441C2.66931 15.3144 3.03737 16.6878 4.10757 17.3058C5.17777 17.9235 6.55119 17.5557 7.16916 16.4855C7.78704 15.4152 7.41908 14.0418 6.34878 13.4239C6.00353 13.2244 5.62014 13.1226 5.23186 13.1226C5.03712 13.1226 4.84119 13.1481 4.64815 13.1999ZM3.85754 33.2613L3.85757 33.2612C5.16714 32.5052 6.84623 32.9553 7.60216 34.2645L7.20236 34.4954L7.60218 34.2645C8.35808 35.5738 7.90828 37.253 6.59893 38.009C5.96562 38.3749 5.22502 38.4723 4.5187 38.283C3.81246 38.0937 3.21993 37.6392 2.85427 37.0059L3.28729 36.7559C3.58661 37.2743 4.06992 37.6451 4.64815 37.8001C5.22638 37.9551 5.83041 37.8756 6.34878 37.576C7.41908 36.9582 7.78704 35.5848 7.16916 34.5145C6.55128 33.4444 5.17797 33.0763 4.10757 33.6943C3.03737 34.3122 2.66941 35.6856 3.28729 36.7559L2.85426 37.0058C2.09834 35.6964 2.54821 34.0173 3.85754 33.2613ZM27.2815 44.2523L27.1089 43.8627C26.373 42.2011 24.7101 41.041 22.7829 41.041C20.8573 41.041 19.1955 42.1993 18.4587 43.8588L18.2858 44.248L17.8741 44.1393C14.5488 43.2615 11.5053 41.5067 9.09428 39.0766L8.79375 38.7737L9.04564 38.4293C9.38635 37.9634 9.64238 37.4344 9.79651 36.8593C10.1237 35.6382 9.95615 34.3654 9.324 33.2705C8.36117 31.603 6.52724 30.7431 4.72162 30.9346L4.29813 30.9796L4.18639 30.5686C3.28378 27.2492 3.28186 23.7353 4.18145 20.4317L4.29342 20.0205L4.71713 20.0659C4.88541 20.0839 5.05309 20.0932 5.21931 20.0932C6.8572 20.0932 8.4497 19.2438 9.324 17.7295C9.95616 16.6346 10.1238 15.3619 9.79651 14.1407M10.2795 36.9887C10.1092 37.624 9.82614 38.2091 9.44922 38.7244C11.7972 41.091 14.7621 42.8007 18.0017 43.6559C18.8155 41.8231 20.6518 40.541 22.7829 40.541C24.9158 40.541 26.7533 41.8251 27.5661 43.6602C30.7906 42.8104 33.7547 41.0972 36.1158 38.7186C34.9356 37.0974 34.7433 34.8662 35.8088 33.0205C36.8753 31.1734 38.9061 30.2243 40.9018 30.4378C41.778 27.2207 41.7765 23.7974 40.8973 20.5635C40.7137 20.5829 40.5299 20.5931 40.3466 20.5931C38.5377 20.5931 36.7764 19.6553 35.8088 17.9795C34.7425 16.1323 34.9359 13.899 36.1186 12.2776C33.7704 9.91004 30.8048 8.19964 27.5642 7.3441C26.7503 9.17691 24.9141 10.459 22.7829 10.459C20.6501 10.459 18.8126 9.17492 17.9997 7.33982C14.7761 8.18938 11.8128 9.90187 9.45201 12.2794C9.82754 12.7938 10.1096 13.3776 10.2795 14.0113C10.641 15.3606 10.4555 16.7697 9.75701 17.9795C8.78951 19.6552 7.02792 20.5932 5.21931 20.5932C5.03443 20.5932 4.84896 20.5829 4.66389 20.5631C3.78782 23.7802 3.78952 27.2035 4.66887 30.4374C6.66305 30.2259 8.69139 31.1749 9.75701 33.0205C10.4555 34.2303 10.6409 35.6395 10.2795 36.9887ZM27.2815 44.2523L27.6935 44.1437L27.2815 44.2523ZM8.79669 12.2298L9.09721 11.9271C11.5205 9.48671 14.5621 7.72871 17.8723 6.85633L18.2843 6.74774L18.4568 7.13731C19.1929 8.79887 20.8558 9.95898 22.7829 9.95898C24.7085 9.95898 26.3703 8.80068 27.1072 7.14117L27.2801 6.75196L27.6918 6.86066C31.0181 7.73883 34.0624 9.49435 36.4736 11.9255L36.7737 12.228L36.5226 12.5722C35.4517 14.0403 35.2784 16.0605 36.2419 17.7295C37.1162 19.2439 38.7084 20.0931 40.3466 20.0931C40.5113 20.0931 40.6775 20.0839 40.8447 20.0662L41.2681 20.0214L41.3798 20.4323C42.2823 23.7517 42.284 27.2656 41.3842 30.5692L41.2722 30.9803L40.8486 30.935C39.0416 30.7416 37.2054 31.6015 36.2419 33.2705C35.2791 34.9381 35.4514 36.9564 36.5201 38.4243L36.7707 38.7686L36.4707 39.0708C34.0471 41.5124 31.0047 43.2711 27.6935 44.1437M8.79669 12.2298L9.04818 12.5743L8.79669 12.2298ZM38.9672 38.0093L38.9672 38.0093C37.6578 37.2533 37.208 35.5741 37.9638 34.2647L37.9638 34.2646C38.4717 33.385 39.3956 32.8944 40.3416 32.8944C40.8067 32.8944 41.2782 33.0129 41.7084 33.2612L41.7084 33.2613C43.0177 34.0173 43.4676 35.6965 42.7117 37.0058C41.9557 38.3154 40.2766 38.7651 38.9672 38.0093ZM40.3339 12.624C39.8687 12.624 39.3974 12.7424 38.9672 12.9908L40.3339 12.624ZM42.7117 13.9941C42.2038 13.1147 41.2799 12.6239 40.334 12.624L42.7117 13.9941ZM22.7829 2.48828C24.2948 2.48828 25.5241 3.71748 25.5241 5.22949C25.5241 6.7415 24.2948 7.9707 22.7829 7.9707C21.2709 7.9707 20.0417 6.74149 20.0417 5.22949C20.0417 3.7175 21.2709 2.48828 22.7829 2.48828ZM22.7829 48.5117C21.2709 48.5117 20.0417 47.2825 20.0417 45.7705C20.0417 44.2585 21.2709 43.0293 22.7829 43.0293C24.2948 43.0293 25.5241 44.2585 25.5241 45.7705C25.5241 47.2825 24.2948 48.5117 22.7829 48.5117ZM9.04818 12.5743C9.38759 13.0392 9.64273 13.567 9.7965 14.1407L9.04818 12.5743ZM39.2172 37.5762C38.147 36.9584 37.779 35.5849 38.3968 34.5146C38.8115 33.7965 39.5663 33.3944 40.3416 33.3944C40.7215 33.3944 41.1064 33.4911 41.4584 33.6943C42.5286 34.3122 42.8966 35.6857 42.2787 36.7559C41.6608 37.8262 40.2875 38.194 39.2172 37.5762ZM41.4584 17.3057C42.5286 16.6878 42.8966 15.3143 42.2787 14.2441C41.864 13.5261 41.1091 13.1239 40.334 13.124C39.9539 13.124 39.5692 13.2206 39.2172 13.4239C38.147 14.0417 37.779 15.4151 38.3968 16.4855C39.0148 17.5558 40.3884 17.9236 41.4584 17.3057ZM25.0241 5.22949C25.0241 3.99364 24.0187 2.98828 22.7829 2.98828C21.5471 2.98828 20.5417 3.99364 20.5417 5.22949C20.5417 6.46535 21.5471 7.4707 22.7829 7.4707C24.0187 7.4707 25.0241 6.46535 25.0241 5.22949ZM20.5417 45.7705C20.5417 47.0064 21.5471 48.0117 22.7829 48.0117C24.0187 48.0117 25.0241 47.0064 25.0241 45.7705C25.0241 44.5347 24.0187 43.5293 22.7829 43.5293C21.5471 43.5293 20.5417 44.5347 20.5417 45.7705Z" fill="#341839"/>
<path id="Vector_2" d="M12.231 19.4078V31.592L22.7829 37.6841L33.3348 31.592V19.4078L22.7829 13.3157L12.231 19.4078ZM28.8524 20.2704L22.7829 23.7747L16.7134 20.2704L22.7829 16.7661L28.8524 20.2704ZM15.2192 22.8584L21.2887 26.3625V33.3709L15.2192 29.8667V22.8584ZM24.277 33.3709V26.3625L30.3465 22.8584V29.8668L24.277 33.3709Z" fill="white"/>
<path id="Vector (Stroke)_2" fill-rule="evenodd" clip-rule="evenodd" d="M29.8524 20.2704L22.7829 24.352L15.7134 20.2704L22.7829 16.1888L29.8524 20.2704ZM14.7192 21.9923L21.7887 26.0738V34.237L14.7192 30.1553V21.9923ZM23.777 34.2369V26.0738L30.8465 21.9923V30.1554L23.777 34.2369ZM12.731 31.3033L22.7829 37.1068L32.8348 31.3033V19.6965L22.7829 13.893L12.731 19.6965V31.3033ZM22.7829 13.3157L33.3348 19.4078V31.592L22.7829 37.6841L12.231 31.592V19.4078L22.7829 13.3157ZM28.8524 20.2704L22.7829 16.7661L16.7134 20.2704L22.7829 23.7747L28.8524 20.2704ZM15.2192 22.8584V29.8667L21.2887 33.3709V26.3625L15.2192 22.8584ZM24.277 33.3709L30.3465 29.8668V22.8584L24.277 26.3625V33.3709Z" fill="#341839"/>
</g>
</g>
</svg>
