<svg width="43" height="55" viewBox="0 0 43 55" fill="none" xmlns="http://www.w3.org/2000/svg">
<g id="Group 81735">
<g id="Group">
<g id="Group_2">
<path id="Vector" d="M36.0814 10.5087C38.9679 10.5087 41.3132 8.15212 41.3132 5.25434C41.3132 2.35656 38.9679 0 36.0814 0C33.1949 0 30.8496 2.36784 30.8496 5.25434C30.8496 8.14085 33.1949 10.5087 36.0814 10.5087ZM36.0814 2.71737C37.4683 2.71737 38.6071 3.85619 38.6071 5.26562C38.6071 6.67505 37.4796 7.81386 36.0814 7.81386C34.6832 7.81386 33.5557 6.66377 33.5557 5.25434C33.5557 3.84492 34.6832 2.71737 36.0814 2.71737Z" fill="white"/>
<path id="Vector_2" d="M5.23179 44.3914C2.34529 44.3914 0 46.7479 0 49.6457C0 52.5435 2.34529 54.9 5.23179 54.9C8.1183 54.9 10.4636 52.5435 10.4636 49.6457C10.4636 46.7479 8.10702 44.3914 5.23179 44.3914ZM5.23179 52.1939C3.84492 52.1939 2.7061 51.0551 2.7061 49.6457C2.7061 48.2475 3.83364 47.0975 5.23179 47.0975C6.62994 47.0975 7.75749 48.2363 7.75749 49.6457C7.74621 51.0438 6.61867 52.1939 5.23179 52.1939Z" fill="white"/>
<path id="Vector_3" d="M18.1646 23.2837C18.424 23.5431 18.7735 23.6784 19.123 23.6784C19.4726 23.6784 19.8108 23.5431 20.0815 23.2837C20.6114 22.7538 20.6114 21.8968 20.0815 21.3669L17.2626 18.548L20.0815 15.7292C20.6114 15.1993 20.6114 14.3423 20.0815 13.8124C19.5515 13.2824 18.6946 13.2824 18.1646 13.8124L15.3458 16.6312L12.5269 13.8124C11.997 13.2824 11.14 13.2824 10.6101 13.8124C10.0802 14.3423 10.0802 15.1993 10.6101 15.7292L13.429 18.548L10.6101 21.3669C10.0802 21.8968 10.0802 22.7538 10.6101 23.2837C10.8694 23.5431 11.219 23.6784 11.5685 23.6784C11.9181 23.6784 12.2563 23.5431 12.5269 23.2837L15.3458 20.4649L18.1646 23.2837Z" fill="white"/>
<path id="Vector_4" d="M40.817 35.5176C40.2871 34.9876 39.4302 34.9876 38.9002 35.5176L36.0814 38.3364L33.2625 35.5176C32.7326 34.9876 31.8756 34.9876 31.3457 35.5176C30.8158 36.0475 30.8158 36.9045 31.3457 37.4344L34.1646 40.2533L31.3457 43.0721C30.8158 43.602 30.8158 44.459 31.3457 44.9889C31.605 45.2483 31.9546 45.3836 32.3041 45.3836C32.6536 45.3836 32.9919 45.2483 33.2625 44.9889L36.0814 42.1701L38.9002 44.9889C39.1596 45.2483 39.5091 45.3836 39.8586 45.3836C40.2082 45.3836 40.5464 45.2483 40.817 44.9889C41.347 44.459 41.347 43.602 40.817 43.0721L37.9982 40.2533L40.817 37.4344C41.347 36.8932 41.347 36.0475 40.817 35.5176Z" fill="white"/>
<path id="Vector_5" d="M24.7834 42.4971C24.2534 41.9671 23.3965 41.9671 22.8665 42.4971L20.0477 45.3159L17.2288 42.4971C16.6989 41.9671 15.842 41.9671 15.312 42.4971C14.7821 43.027 14.7821 43.8839 15.312 44.4139L18.1309 47.2327L15.312 50.0516C14.7821 50.5815 14.7821 51.4385 15.312 51.9684C15.5713 52.2278 15.9209 52.3631 16.2704 52.3631C16.62 52.3631 16.9582 52.2278 17.2288 51.9684L20.0477 49.1496L22.8665 51.9684C23.1259 52.2278 23.4754 52.3631 23.8249 52.3631C24.1745 52.3631 24.5127 52.2278 24.7834 51.9684C25.3133 51.4385 25.3133 50.5815 24.7834 50.0516L21.9645 47.2327L24.7834 44.4139C25.302 43.8839 25.302 43.027 24.7834 42.4971Z" fill="white"/>
<path id="Vector_6" d="M16.0225 32.3266C16.7667 32.3266 17.3755 31.7177 17.3755 30.9735C17.3755 30.2294 16.7667 29.6205 16.0225 29.6205C15.2783 29.6205 14.6694 30.2294 14.6694 30.9735C14.6694 31.7177 15.267 32.3266 16.0225 32.3266Z" fill="white"/>
<path id="Vector_7" d="M5.99864 36.3182C6.22415 36.4648 6.48349 36.5437 6.74282 36.5437C7.18256 36.5437 7.61103 36.3295 7.87036 35.9348C8.27628 35.3147 8.10715 34.469 7.487 34.0631C6.86685 33.6572 6.0212 33.8263 5.61528 34.4465C5.19809 35.0666 5.36722 35.9123 5.99864 36.3182Z" fill="white"/>
<path id="Vector_8" d="M10.2269 30.5339C9.5391 30.8383 9.23466 31.6388 9.5391 32.3154C9.76461 32.8228 10.2607 33.1159 10.7794 33.1159C10.9598 33.1159 11.1515 33.0821 11.3319 33.0032C12.0197 32.6987 12.3241 31.8982 12.0197 31.2217C11.7039 30.5339 10.9034 30.2294 10.2269 30.5339Z" fill="white"/>
<path id="Vector_9" d="M21.3782 32.3266C22.1255 32.3266 22.7312 31.7208 22.7312 30.9735C22.7312 30.2263 22.1255 29.6205 21.3782 29.6205C20.6309 29.6205 20.0251 30.2263 20.0251 30.9735C20.0251 31.7208 20.6309 32.3266 21.3782 32.3266Z" fill="white"/>
<path id="Vector_10" d="M5.23171 41.6062C5.59253 41.6062 5.94206 41.4597 6.19012 41.2116C6.43818 40.9635 6.58476 40.614 6.58476 40.2532C6.58476 39.8924 6.43818 39.5428 6.19012 39.2948C5.94206 39.0467 5.59253 38.9001 5.23171 38.9001C4.8709 38.9001 4.52136 39.0467 4.2733 39.2948C4.02524 39.5428 3.87866 39.8924 3.87866 40.2532C3.87866 40.614 4.02524 40.9635 4.2733 41.2116C4.52136 41.4597 4.8709 41.6062 5.23171 41.6062Z" fill="white"/>
<path id="Vector_11" d="M42.2602 19.1908L37.0284 13.959C36.4985 13.429 35.6415 13.429 35.1116 13.959L29.8798 19.1908C29.3499 19.7207 29.3499 20.5777 29.8798 21.1076C30.4097 21.6375 31.2667 21.6375 31.7966 21.1076L34.7169 18.1873V21.6826C34.7169 26.0575 31.1314 29.6093 26.7227 29.6093C25.9785 29.6093 25.3696 30.2181 25.3696 30.9623C25.3696 31.7065 25.9785 32.3154 26.7227 32.3154C32.6197 32.3154 37.423 27.5459 37.423 21.6826V18.176L40.3434 21.0963C40.6027 21.3557 40.9523 21.491 41.3018 21.491C41.6513 21.491 41.9896 21.3557 42.2602 21.0963C42.7901 20.5777 42.7901 19.7207 42.2602 19.1908Z" fill="white"/>
</g>
</g>
</g>
</svg>
