<svg width="24" height="20" viewBox="0 0 24 20" fill="none" xmlns="http://www.w3.org/2000/svg">
<g id="Group">
<path id="Vector" d="M20.3174 2.28022C18.7879 1.57842 17.1477 1.06134 15.4327 0.765159C15.4015 0.75944 15.3703 0.773736 15.3542 0.802281C15.1432 1.17748 14.9096 1.66691 14.7459 2.05163C12.9014 1.77546 11.0663 1.77546 9.25965 2.05163C9.09597 1.65838 8.85384 1.17748 8.64194 0.802281C8.62586 0.774674 8.59464 0.760378 8.56343 0.765159C6.84945 1.06035 5.20924 1.57743 3.67872 2.28022C3.66545 2.28594 3.65411 2.29545 3.64657 2.30782C0.535456 6.95579 -0.316847 11.4895 0.101243 15.967C0.103118 15.9889 0.115445 16.0099 0.132459 16.0232C2.18508 17.5306 4.17344 18.4457 6.12482 19.0524C6.15604 19.0619 6.18913 19.0505 6.209 19.0247C6.67059 18.3944 7.08207 17.7297 7.43487 17.0307C7.45568 16.9898 7.4358 16.9412 7.39325 16.925C6.74057 16.6774 6.1191 16.3755 5.52127 16.0328C5.47397 16.0052 5.47018 15.9375 5.51372 15.9051C5.63952 15.8109 5.76537 15.7128 5.8855 15.6138C5.90725 15.5957 5.93753 15.5919 5.96307 15.6033C9.89049 17.3964 14.1424 17.3964 18.0234 15.6033C18.049 15.5909 18.0793 15.5947 18.102 15.6128C18.2221 15.7118 18.3479 15.8108 18.4747 15.9051C18.5182 15.9375 18.5153 16.0051 18.4681 16.0327C17.8702 16.3822 17.2488 16.6774 16.5951 16.924C16.5526 16.9402 16.5337 16.9897 16.5545 17.0307C16.9149 17.7287 17.3264 18.3933 17.7794 19.0238C17.7984 19.0504 17.8324 19.0619 17.8636 19.0523C19.8245 18.4457 21.8128 17.5306 23.8654 16.0232C23.8834 16.0099 23.8948 15.9898 23.8967 15.968C24.3971 10.7915 23.0586 6.29491 20.3485 2.30876C20.342 2.29545 20.3306 2.28594 20.3174 2.28022ZM8.02146 13.2407C6.83904 13.2407 5.86474 12.1551 5.86474 10.8219C5.86474 9.48879 6.82011 8.40321 8.02146 8.40321C9.23218 8.40321 10.1971 9.49831 10.1781 10.8219C10.1781 12.1551 9.22271 13.2407 8.02146 13.2407ZM15.9955 13.2407C14.8131 13.2407 13.8388 12.1551 13.8388 10.8219C13.8388 9.48879 14.7942 8.40321 15.9955 8.40321C17.2063 8.40321 18.1711 9.49831 18.1522 10.8219C18.1522 12.1551 17.2063 13.2407 15.9955 13.2407Z" fill="url(#paint0_linear_640_287)"/>
</g>
<defs>
<linearGradient id="paint0_linear_640_287" x1="6.82648" y1="4.19362" x2="22.0998" y2="10.6832" gradientUnits="userSpaceOnUse">
<stop stop-color="#B33AE7"/>
<stop offset="1" stop-color="#D80FFF"/>
</linearGradient>
</defs>
</svg>
