<svg width="50" height="50" viewBox="0 0 50 50" fill="none" xmlns="http://www.w3.org/2000/svg">
<g id="Group 81736">
<path id="Vector" d="M17.3453 30.3586C17.3453 33.3256 19.6223 35.7176 22.4513 35.7176H28.2243C30.6853 35.7176 32.6863 33.6246 32.6863 31.0486C32.6863 28.2426 31.4673 27.2536 29.6503 26.6096L20.3813 23.3896C18.5643 22.7456 17.3453 21.7566 17.3453 18.9506C17.3453 16.3746 19.3463 14.2816 21.8073 14.2816H27.5803C30.4093 14.2816 32.6863 16.6736 32.6863 19.6406" stroke="white" stroke-width="2.5" stroke-linecap="round" stroke-linejoin="round"/>
<path id="Vector_2" d="M25 11.2V38.8" stroke="white" stroke-width="2.5" stroke-linecap="round" stroke-linejoin="round"/>
<path id="Vector_3" d="M25 48C37.7025 48 48 37.7025 48 25C48 12.2975 37.7025 2 25 2C12.2975 2 2 12.2975 2 25C2 37.7025 12.2975 48 25 48Z" stroke="white" stroke-width="2.5" stroke-linecap="round" stroke-linejoin="round"/>
</g>
</svg>
