<svg width="31" height="31" viewBox="0 0 31 31" fill="none" xmlns="http://www.w3.org/2000/svg">
<g id="Group 2">
<g id="Layer_2_1_">
<g id="Layer_2-2">
<g id="_27.rocket-launch">
<path id="Vector" d="M3.25307 22.2577C1.98271 23.5281 0.211909 29.3409 0.0194299 29.9953C-0.0575615 30.3033 0.0964212 30.6498 0.442883 30.7268C0.481378 30.7268 0.55837 30.7653 0.596866 30.7653C0.635362 30.7653 0.712353 30.7653 0.750849 30.7268C1.40528 30.5343 7.21813 28.7635 8.48849 27.4931C9.95133 26.0303 9.95133 23.6821 8.48849 22.2577C7.06415 20.8334 4.71591 20.8334 3.25307 22.2577Z" fill="url(#paint0_linear_640_157)"/>
<path id="_Path_" d="M30.3926 1.08502C30.3156 0.738563 30.0461 0.507589 29.6997 0.392102C28.1983 0.0841359 26.62 -0.0313513 25.0802 0.00714447C19.3058 0.00714447 15.8412 3.0868 13.262 7.16735H7.44913C6.44824 7.20584 5.56284 7.78328 5.06239 8.63019L2.2907 14.1736C2.21371 14.366 2.17521 14.5585 2.13672 14.7895C2.13672 15.5209 2.75265 16.1369 3.48407 16.1369H9.29693L8.06506 17.3687C7.37214 18.0616 7.37214 19.178 8.06506 19.9094L10.9137 22.7581C11.6067 23.451 12.723 23.451 13.4545 22.7581L14.7248 21.4878V27.3006C14.7248 28.032 15.3023 28.648 16.0722 28.648C16.2647 28.648 16.4571 28.6095 16.6496 28.5325L22.1545 25.7608C23.0399 25.2603 23.5788 24.3749 23.6173 23.374V17.4842C27.6979 14.905 30.7775 11.4404 30.7775 5.70451C30.816 4.16468 30.7006 2.62485 30.3926 1.08502ZM23.6173 9.4001C22.3855 9.4001 21.3846 8.39921 21.3846 7.16735C21.3846 5.93549 22.3855 4.9346 23.6173 4.9346C24.8492 4.9346 25.8501 5.93549 25.8501 7.16735C25.8501 8.39921 24.8492 9.4001 23.6173 9.4001Z" fill="url(#paint1_linear_640_157)"/>
</g>
</g>
</g>
</g>
<defs>
<linearGradient id="paint0_linear_640_157" x1="2.72591" y1="22.9849" x2="9.24302" y2="25.0978" gradientUnits="userSpaceOnUse">
<stop stop-color="#B33AE7"/>
<stop offset="1" stop-color="#D80FFF"/>
</linearGradient>
<linearGradient id="paint1_linear_640_157" x1="10.2835" y1="5.37149" x2="29.7646" y2="11.6808" gradientUnits="userSpaceOnUse">
<stop stop-color="#B33AE7"/>
<stop offset="1" stop-color="#D80FFF"/>
</linearGradient>
</defs>
</svg>
