<svg width="24" height="20" viewBox="0 0 24 20" fill="none" xmlns="http://www.w3.org/2000/svg">
<path id="Vector" fill-rule="evenodd" clip-rule="evenodd" d="M21.5444 4.97749C21.5534 5.19738 21.5564 5.41718 21.5564 5.63707C21.5564 12.3037 16.6041 20 7.54803 20C4.76618 20 2.17945 19.1604 0 17.7311C0.385257 17.7711 0.776522 17.8011 1.17379 17.8011C3.48032 17.8011 5.60474 16.9914 7.28986 15.6321C5.13543 15.6021 3.31622 14.1328 2.6888 12.1338C2.99 12.1938 3.30019 12.2239 3.6174 12.2239C4.0647 12.2239 4.49898 12.164 4.91526 12.044C2.66076 11.5843 0.962647 9.54532 0.962647 7.09655C0.962647 7.06656 0.962647 7.05651 0.962647 7.03652C1.62709 7.40633 2.38758 7.6361 3.19512 7.66609C1.87224 6.75654 1.00265 5.20735 1.00265 3.45823C1.00265 2.53869 1.24481 1.66909 1.6711 0.919462C4.09871 3.97793 7.72816 5.98695 11.8199 6.19685C11.7358 5.82704 11.6928 5.43733 11.6928 5.04752C11.6928 2.25892 13.8972 0 16.6171 0C18.033 0 19.3119 0.609783 20.2094 1.58929C21.3332 1.3694 22.3859 0.949642 23.3385 0.369932C22.9693 1.54934 22.1898 2.53864 21.1711 3.15833C22.1678 3.03839 23.1184 2.76873 24 2.36893C23.3386 3.37843 22.506 4.26784 21.5444 4.97749Z" fill="url(#paint0_linear_640_294)"/>
<defs>
<linearGradient id="paint0_linear_640_294" x1="6.825" y1="3.75" x2="22.491" y2="9.83847" gradientUnits="userSpaceOnUse">
<stop stop-color="#B33AE7"/>
<stop offset="1" stop-color="#D80FFF"/>
</linearGradient>
</defs>
</svg>
